<?xml version="1.0"?>
<svg xmlns="http://www.w3.org/2000/svg" viewBox="0 0 64 64" width="512px" height="512px"><g><g id="Outline"><g><path d="M55,2H9A7.008,7.008,0,0,0,2,9v4a1,1,0,0,0,2,0V9A5.006,5.006,0,0,1,9,4H55a5.006,5.006,0,0,1,5,5v6a1,1,0,0,0,2,0V9A7.008,7.008,0,0,0,55,2Z" data-original="#000000" class="active-path" data-old_color="#000000" fill="#FFFFFF"/><path d="M61,18a1,1,0,0,0-1,1V38a5.006,5.006,0,0,1-5,5H53.347a1,1,0,0,0,0,2H55a7.008,7.008,0,0,0,7-7V19A1,1,0,0,0,61,18Z" data-original="#000000" class="active-path" data-old_color="#000000" fill="#FFFFFF"/><path d="M51,54H48.309a11.924,11.924,0,0,1-3.436-3.568,2.965,2.965,0,0,0,1.875-.855l2.83-2.828a3,3,0,0,0,0-4.243l-7.071-7.071a3.078,3.078,0,0,0-3.4-.568l-3.879-3.879a16.044,16.044,0,0,0-.521-18.682,1,1,0,1,0-1.589,1.215,14,14,0,1,1-2.641-2.642A1,1,0,0,0,31.7,9.289,15.993,15.993,0,1,0,22,38a15.877,15.877,0,0,0,8.99-2.767L34.858,39.1a3,3,0,0,0,.577,3.405l6.514,6.514A14.011,14.011,0,0,0,45.183,54H18.8a14,14,0,0,0,4.142-9H33.343a1,1,0,0,0,0-2H9a5.006,5.006,0,0,1-5-5V17a1,1,0,0,0-2,0V38a7.008,7.008,0,0,0,7,7H20.938a12.033,12.033,0,0,1-5.25,9H13a5.006,5.006,0,0,0-5,5v2a1,1,0,0,0,1,1H28a1,1,0,0,0,0-2H10V59a3,3,0,0,1,3-3H51a3,3,0,0,1,3,3v1H32a1,1,0,0,0,0,2H55a1,1,0,0,0,1-1V59A5.006,5.006,0,0,0,51,54ZM33.313,33.314c.239-.239.455-.491.675-.741l3.569,3.569-1.415,1.415-3.57-3.571C32.821,33.765,33.076,33.551,33.313,33.314Zm3.536,6.364,2.829-2.828h0a1,1,0,0,1,1.414,0l7.071,7.07a1,1,0,0,1,0,1.415l-2.829,2.828a1.021,1.021,0,0,1-1.414,0l-7.07-7.071A1,1,0,0,1,36.849,39.678Z" data-original="#000000" class="active-path" data-old_color="#000000" fill="#FFFFFF"/><path d="M22,34a12,12,0,1,0-9.882-5.2,1,1,0,1,0,1.647-1.135,10,10,0,1,1,2.572,2.572A1,1,0,0,0,15.2,31.881,11.953,11.953,0,0,0,22,34Z" data-original="#000000" class="active-path" data-old_color="#000000" fill="#FFFFFF"/><path d="M14,25a3,3,0,0,0,3,3H27a1,1,0,0,0,0-2h-.867l.859-6.876A1,1,0,0,0,26,18H23.4l-.8-2.931a1,1,0,0,0-.84-.729l-2.638-.332a1,1,0,1,0-.25,1.984l1.975.248L21.329,18H20a1,1,0,0,0-.992,1.124L19.367,22H17A3,3,0,0,0,14,25Zm3,1a1,1,0,0,1,0-2h3a1,1,0,0,1,0,2Zm7.867-6-.75,6h-1.3a2.934,2.934,0,0,0-1.386-3.621L21.133,20Z" data-original="#000000" class="active-path" data-old_color="#000000" fill="#FFFFFF"/><path d="M44,25a1,1,0,0,0,1,1H55a1,1,0,0,0,0-2H45A1,1,0,0,0,44,25Z" data-original="#000000" class="active-path" data-old_color="#000000" fill="#FFFFFF"/><path d="M41,30H55a1,1,0,0,0,0-2H41a1,1,0,0,0,0,2Z" data-original="#000000" class="active-path" data-old_color="#000000" fill="#FFFFFF"/><path d="M55,33a1,1,0,0,0-1-1H44a1,1,0,0,0,0,2H54A1,1,0,0,0,55,33Z" data-original="#000000" class="active-path" data-old_color="#000000" fill="#FFFFFF"/><path d="M49,38h6a1,1,0,0,0,0-2H49a1,1,0,0,0,0,2Z" data-original="#000000" class="active-path" data-old_color="#000000" fill="#FFFFFF"/><path d="M52,18a1.5,1.5,0,0,1-1.5-1.5,1,1,0,0,0-2,0A3.494,3.494,0,0,0,51,19.837V21a1,1,0,0,0,2,0V19.837A3.49,3.49,0,0,0,52,13a1.5,1.5,0,1,1,1.5-1.5,1,1,0,0,0,2,0A3.494,3.494,0,0,0,53,8.163V7a1,1,0,0,0-2,0V8.163A3.49,3.49,0,0,0,52,15a1.5,1.5,0,0,1,0,3Z" data-original="#000000" class="active-path" data-old_color="#000000" fill="#FFFFFF"/><path d="M43,10a1,1,0,0,0-1,1v1H41a1,1,0,0,0,0,2h1v1a1,1,0,0,0,2,0V14h1a1,1,0,0,0,0-2H44V11A1,1,0,0,0,43,10Z" data-original="#000000" class="active-path" data-old_color="#000000" fill="#FFFFFF"/></g></g></g> </svg>
